<?xml version="1.0" encoding="UTF-8"?>
<svg id="Layer_1" xmlns="http://www.w3.org/2000/svg" version="1.1" viewBox="0 0 12 12">
  <!-- Generator: Adobe Illustrator 30.2.1, SVG Export Plug-In . SVG Version: 2.1.1 Build 1)  -->
  <defs>
    <style>
      .st0 {
        fill: #fff;
      }
    </style>
  </defs>
  <path class="st0" d="M1.9,10.5c-.3,0-.5,0-.7-.2-.7-.4-.9-1.3-.5-2L4.7,1.6s0,0,0,0c.1-.2.3-.4.5-.5.7-.4,1.6-.2,2,.5l4.1,6.8c.1.2.2.5.2.7,0,.4-.1.8-.4,1-.3.3-.6.4-1,.4H1.9ZM5.6,2s0,0,0,0L1.6,8.8c-.1.2,0,.5.2.6,0,0,.1,0,.2,0h8.1c.1,0,.2,0,.3-.1,0,0,.1-.2.1-.3,0,0,0-.2,0-.2L6.4,2.1c-.1-.2-.4-.3-.6-.2,0,0-.1,0-.1.1ZM6,8.5c-.3,0-.5-.2-.5-.5s.2-.5.5-.5h0c.3,0,.5.2.5.5s-.2.5-.5.5ZM6,7c-.3,0-.5-.2-.5-.5v-2c0-.3.2-.5.5-.5s.5.2.5.5v2c0,.3-.2.5-.5.5Z"/>
</svg>